<svg stroke="currentColor" fill="currentColor" stroke-width="0" viewBox="0 0 512 512" class="StatsData___StyledGiLion-sc-1us6jm1-2 PmYps stats--icon" height="1em" width="1em" xmlns="http://www.w3.org/2000/svg">
<path fill="#00003e" style="fill: var(--color1, #00003e)" d="M4.953 13.453c-0.023-0.026-0.189-0.365-0.368-0.75-0.397-0.853-0.566-1.172-0.63-1.192-0.056-0.019-0.048 0.068 0.074 0.8 0.083 0.497 0.075 0.748-0.027 0.861-0.2 0.221-1.002 0.287-1.349 0.111-0.355-0.18-0.67-0.643-0.804-1.178-0.094-0.376-0.085-1.325 0.017-1.768 0.083-0.359 0.945-2.705 1.13-3.072 0.178-0.354 0.296-0.502 0.606-0.762 0.16-0.134 0.315-0.257 0.343-0.274 0.059-0.034 0.064-0.043-0.166 0.314-0.287 0.447-0.384 0.704-0.266 0.703 0.025-0 0.144-0.084 0.263-0.186 0.234-0.2 0.53-0.382 1.024-0.629 0.338-0.169 0.692-0.388 0.973-0.603 0.236-0.18 0.837-0.512 1.156-0.638 0.235-0.093 0.274-0.098 0.421-0.059 0.375 0.1 0.73 0.406 0.943 0.812 0.15 0.287 0.278 0.697 0.412 1.321 0.053 0.245 0.104 0.482 0.114 0.528 0.025 0.115 0.066 0.105 0.182-0.047 0.271-0.355 0.389-0.881 0.317-1.418-0.086-0.646-0.29-1.071-0.731-1.524-0.168-0.173-0.306-0.329-0.306-0.347 0-0.062 0.242 0.015 0.426 0.139 0.448 0.299 0.937 0.848 1.15 1.293 0.161 0.336 0.215 0.679 0.191 1.228-0.014 0.34-0.042 0.516-0.115 0.743-0.118 0.365-0.347 0.754-0.497 0.843-0.126 0.074-0.704 0.153-0.884 0.12-0.129-0.023-0.161-0.076-0.161-0.262 0-0.378-0.253-1.268-0.467-1.641-0.101-0.176-0.34-0.449-0.393-0.449-0.065 0-0.023 0.243 0.086 0.491 0.179 0.409 0.264 0.89 0.247 1.397-0.018 0.521-0.090 0.715-0.273 0.733-0.103 0.008-0.118-0.002-0.162-0.134-0.055-0.167-0.434-0.739-0.528-0.798-0.101-0.063-0.117-0.002-0.048 0.187 0.28 0.783 0.29 0.842 0.158 0.963-0.116 0.106-0.551 0.368-0.86 0.516-0.291 0.14-0.509 0.16-0.695 0.064-0.064-0.034-0.242-0.18-0.396-0.327-0.482-0.459-0.615-0.502-0.429-0.139 0.070 0.136 0.236 0.338 0.469 0.568l0.36 0.358-0.146 0.195c-0.080 0.107-0.146 0.202-0.146 0.21 0 0.015 0.14-0.067 0.518-0.307 0.697-0.442 1.515-0.83 2.102-0.997 0.409-0.116 0.704-0.159 1.193-0.175l0.388-0.011 0.109 0.222c0.284 0.581 0.69 1.472 0.69 1.514 0 0.034-0.131 0.060-0.442 0.090-1.475 0.144-3.263 0.993-4.392 2.085-0.276 0.266-0.348 0.319-0.382 0.279z"></path>
<path fill="#786721" style="fill: var(--color2, #786721)" d="M23.453 27.122l-0.012-0.198-0.053 0.111c-0.093 0.193-0.152 0.241-0.303 0.241-0.198 0-0.283-0.127-0.223-0.33 0.088-0.294 0.331-0.478 0.762-0.578 0.382-0.088 0.458-0.14 0.565-0.381 0.338-0.764 0.281-1.296-0.187-1.739-0.308-0.291-0.448-0.32-1.43-0.29-0.927 0.026-1.114 0.001-1.614-0.233-0.635-0.297-1.108-0.733-1.614-1.487-0.335-0.498-0.525-0.695-0.711-0.737-0.146-0.034-0.843 0.011-1.103 0.071-0.477 0.108-0.889 0.311-1.762 0.868-0.311 0.198-0.686 0.418-0.833 0.487-0.325 0.153-0.908 0.324-1.052 0.307l-0.105-0.011 0.025-0.751-0.253-0.164c-0.139-0.090-0.353-0.25-0.475-0.355-0.411-0.353-0.346-0.188 0.116 0.29 0.364 0.378 0.366 0.386 0.219 1.010-0.149 0.63-0.207 1.013-0.239 1.572l-0.030 0.528-0.258 0.453c-0.142 0.249-0.351 0.629-0.465 0.844s-0.243 0.423-0.287 0.463c-0.074 0.067-0.148 0.073-0.926 0.084l-0.846 0.011-0.024-0.394-0.049 0.111c-0.027 0.061-0.064 0.149-0.082 0.194-0.029 0.076-0.057 0.083-0.293 0.083-0.291 0-0.29 0.001-0.22-0.275 0.047-0.185 0.215-0.405 0.372-0.486 0.060-0.030 0.279-0.099 0.487-0.15s0.431-0.126 0.495-0.166c0.235-0.145 0.621-0.891 0.621-1.2 0-0.263-0.1-0.415-0.703-1.073-0.524-0.571-0.819-0.941-0.998-1.253-0.089-0.155-0.11-0.172-0.156-0.125s-0.024 0.111 0.171 0.501c0.145 0.288 0.21 0.456 0.184 0.472-0.070 0.043-0.702-0.026-0.956-0.102-0.318-0.097-0.711-0.304-0.965-0.508-0.112-0.090-0.224-0.179-0.25-0.199-0.031-0.023-0.046-0.019-0.046 0.008 0 0.059 0.506 0.581 0.64 0.661 0.118 0.070 0.119 0.055-0.037 0.574-0.12 0.399-0.188 0.466-0.901 0.895-0.271 0.163-0.611 0.384-0.755 0.49-0.355 0.263-0.904 0.817-1.161 1.172-0.116 0.161-0.279 0.377-0.362 0.481l-0.15 0.19-0.313 0.023c-0.172 0.015-0.574 0.026-0.894 0.026l-0.581 0.004-0.024-0.389-0.106 0.352h-0.543l0.025-0.139c0.037-0.211 0.121-0.367 0.265-0.493s0.224-0.166 0.66-0.33c0.472-0.177 0.702-0.404 1.356-1.334 1.542-2.197 1.655-2.824 0.735-4.11-0.138-0.194-0.313-0.464-0.388-0.602s-0.154-0.25-0.176-0.25c-0.038 0-0.022 0.246 0.032 0.5l0.024 0.111-0.101-0.093c-0.056-0.051-0.145-0.167-0.199-0.259-0.095-0.162-0.099-0.188-0.117-0.911-0.014-0.554-0.031-0.76-0.069-0.805-0.112-0.135-0.197-0.048-0.247 0.254l-0.024 0.148-0.080-0.148c-0.075-0.139-0.080-0.199-0.080-0.963 0-0.906-0.016-0.981-0.205-0.981-0.080 0-0.11-0.019-0.109-0.065 0.002-0.127 0.077-0.39 0.204-0.715 0.146-0.374 0.166-0.553 0.062-0.553-0.085 0-0.158 0.060-0.266 0.217-0.074 0.107-0.090 0.116-0.12 0.062-0.091-0.163 0.141-0.657 0.503-1.073 0.202-0.232 0.394-0.499 0.394-0.547 0-0.015-0.079-0.019-0.176-0.008l-0.176 0.019 0.154-0.092c0.35-0.208 0.533-0.354 0.938-0.746 0.505-0.489 0.921-0.774 1.685-1.151 0.705-0.348 1.345-0.56 1.907-0.634 0.769-0.1 0.995-0.151 1.265-0.286 0.23-0.115 0.259-0.122 0.242-0.058-0.020 0.075 0.027 0.099 0.067 0.034 0.013-0.019 0.048-0.038 0.079-0.038 0.035 0 0.012 0.038-0.060 0.098-0.134 0.113-0.102 0.159 0.112 0.161 0.072 0 0.196 0.034 0.276 0.074 0.176 0.090 0.398 0.094 0.722 0.015 0.293-0.073 1.025-0.084 1.25-0.019 0.24 0.070 0.286 0.169 0.293 0.634 0.003 0.215 0.018 0.491 0.032 0.615 0.021 0.187 0.012 0.256-0.057 0.417-0.045 0.105-0.097 0.192-0.114 0.192s-0.067-0.071-0.111-0.157c-0.105-0.209-0.214-0.324-0.309-0.324-0.042 0-0.196 0.089-0.34 0.198-0.319 0.24-0.683 0.396-1.19 0.509-0.215 0.048-0.375 0.102-0.368 0.124 0.028 0.087 0.343 0.214 0.936 0.375 0.344 0.094 0.694 0.211 0.778 0.26 0.167 0.098 0.304 0.113 0.392 0.042 0.094-0.076 0.179-0.224 0.179-0.311 0-0.123 0.075-0.146 0.152-0.046 0.094 0.122 0.218 0.501 0.217 0.66-0.001 0.072-0.042 0.207-0.092 0.298s-0.145 0.271-0.211 0.398c-0.066 0.127-0.13 0.231-0.144 0.231s-0.089-0.052-0.168-0.115c-0.127-0.102-0.163-0.112-0.311-0.093-0.61 0.080-0.633 0.078-0.846-0.066-0.214-0.145-0.395-0.172-0.556-0.082-0.088 0.048-0.087 0.050 0.249 0.413 0.295 0.319 0.352 0.403 0.46 0.681 0.068 0.174 0.212 0.454 0.319 0.622 0.217 0.338 0.17 0.311 0.813 0.458 0.269 0.061 0.594 0.081 2.024 0.125 2.277 0.070 2.444 0.090 4.036 0.485 0.934 0.232 1.074 0.283 1.56 0.578 0.236 0.143 0.532 0.303 0.657 0.355 0.613 0.256 1.606-0.015 1.841-0.498 0.067-0.138 0.077-0.211 0.062-0.421-0.035-0.496-0.367-0.944-0.887-1.198-0.366-0.179-0.639-0.245-1.122-0.27-0.458-0.023-0.792 0.011-1.666 0.18-0.797 0.153-1.394 0.166-1.66 0.034-0.262-0.129-0.395-0.329-0.394-0.593 0.001-0.28 0.101-0.485 0.363-0.741 0.335-0.328 0.482-0.382 1.080-0.4 0.451-0.015 0.493-0.008 0.43 0.042-0.039 0.030-0.088 0.063-0.111 0.071s-0.030 0.026-0.016 0.042c0.036 0.039 0.779-0.047 0.962-0.111l0.155-0.055-0.069 0.077c-0.038 0.042-0.187 0.135-0.33 0.206s-0.228 0.121-0.187 0.111c0.041-0.011 0.141-0.030 0.222-0.045l0.148-0.026-0.074 0.083c-0.101 0.113-0.337 0.246-0.529 0.296-0.087 0.023-0.149 0.057-0.137 0.077 0.038 0.062-0.212 0.038-0.573-0.058-0.552-0.145-0.836-0.114-1.036 0.114-0.144 0.165-0.146 0.294-0.006 0.488 0.228 0.315 0.681 0.345 1.798 0.116 0.564-0.115 0.633-0.121 1.444-0.123 0.958-0.002 1.161 0.034 1.722 0.302 0.356 0.17 0.749 0.554 0.919 0.896 0.109 0.22 0.118 0.265 0.118 0.615 0 0.358-0.007 0.391-0.131 0.639-0.257 0.513-0.673 0.815-1.364 0.989-0.48 0.121-0.601 0.119-0.739-0.008-0.129-0.12-0.112-0.085 0.148 0.296 0.142 0.209 0.226 0.387 0.309 0.654 0.223 0.721 0.538 1.206 1.044 1.605 0.465 0.366 1.018 0.631 1.605 0.768 0.688 0.16 0.698 0.177 0.663 1.067-0.027 0.712 0 1.046 0.151 1.819 0.106 0.54 0.137 0.455-0.36 0.972l-0.345 0.359-1.384 0.045zM15.871 27.137c-0.145-0.118-0.089-0.4 0.116-0.587 0.146-0.133 0.307-0.195 0.666-0.257 0.405-0.070 0.593-0.158 0.963-0.452 0.343-0.273 0.463-0.415 0.516-0.611 0.069-0.257 0.016-0.45-0.304-1.1-0.363-0.739-0.697-1.486-0.814-1.821-0.084-0.241-0.085-0.249-0.017-0.323 0.203-0.224 1.359-0.435 1.688-0.307 0.129 0.050 0.169 0.103 0.543 0.713l0.33 0.538-0.145 0.443c-0.121 0.367-0.149 0.509-0.163 0.832-0.016 0.355-0.009 0.413 0.083 0.666 0.221 0.611 0.217 0.767-0.029 1.013-0.085 0.085-0.527 0.409-0.981 0.719l-0.826 0.564h-1.107l-0.002-0.426-0.119 0.222c-0.134 0.25-0.244 0.298-0.396 0.175zM11.088 12.13c0.131-0.046 0.144-0.090 0.055-0.188-0.088-0.097-0.286-0.085-0.498 0.030-0.266 0.145-0.238 0.19 0.119 0.195 0.114 0.002 0.26-0.015 0.324-0.038z"></path>
<path fill="#00003e" style="fill: var(--color1, #00003e)" d="M17.936 11.745q1.813 0.704 2.486 0.704 0.074 0 0.205-0.026 0.137-0.032 0.2-0.032 0.047 0 0.047 0.047 0 0.168-0.321 0.3-0.268 0.11-0.473 0.11-0.694 0-2.533-0.72-1.114 1.019-2.27 1.019-0.468 0-0.788-0.168-0.405-0.215-0.405-0.646 0-0.525 0.636-0.867 0.536-0.284 1.114-0.284 0.704 0 1.529 0.336l2.727-2.906q1.135-1.219 1.65-1.671 1.23-1.077 1.997-1.077 0.657 0 0.725 0.562 0.273-0.1 0.347-0.1 0.068 0 0.068 0.089 0 0.074-0.163 0.147l-0.231 0.089q-0.058 0.988-1.156 2.286t-1.708 1.298q-0.436 0-0.436-0.399 0-0.573 0.82-1.592 0.825-1.025 2.112-1.697 0.011-0.095 0.011-0.131 0-0.305-0.279-0.305-0.504 0-1.645 1.082-0.426 0.405-1.44 1.508l-1.708 1.855zM24.074 6.821q-1.025 0.51-1.844 1.492t-0.82 1.435q0 0.163 0.147 0.163 0.347 0 1.214-0.956 0.872-0.962 1.303-2.133zM16.943 11.929q-0.762-0.284-1.519-0.284-1.13 0-1.13 0.667 0 0.562 0.83 0.562 0.851 0 1.818-0.946z"></path>
<path fill="#786721" style="fill: var(--color2, #786721)" d="M29.145 10.011q0 0.562-0.83 1.319-0.867 0.793-2.102 1.235-1.172 0.415-2.401 0.415-1.671 0-1.671-1.004 0-0.599 0.941-1.093 0.82-0.436 1.492-0.436 0.215 0 0.215 0.131 0 0.089-0.221 0.121-0.641 0.1-1.24 0.368-0.841 0.368-0.841 0.825 0 0.557 1.298 0.557 1.056 0 2.265-0.42 1.235-0.431 2.023-1.098 0.767-0.652 0.767-0.977 0-0.321-1.035-0.441-1.713-0.2-1.918-0.247-1.035-0.252-1.035-0.893 0-0.814 1.214-1.55 0.993-0.604 2.528-1.019 1.345-0.363 2.154-0.363 1.035 0 1.035 0.641 0 0.552-0.962 1.298-0.93 0.72-1.519 0.72-0.473 0-0.473-0.326 0-0.273 0.541-0.641 0.515-0.347 0.804-0.347 0.1 0 0.1 0.063l-0.541 0.294q-0.541 0.294-0.562 0.431 0.026 0.037 0.089 0.037 0.378 0 1.245-0.504 0.92-0.536 0.92-0.883 0-0.305-0.736-0.305-0.841 0-2.37 0.483-1.030 0.326-1.808 0.694-1.345 0.631-1.345 1.14 0 0.326 0.851 0.483l1.687 0.221q0.988 0.147 1.203 0.431 0.236 0.321 0.236 0.641z"></path>
</svg>